<mxfile host="app.diagrams.net" modified="2024-01-15T05:37:01.767Z" agent="Mozilla/5.0 (Windows NT 10.0; Win64; x64) AppleWebKit/537.36 (KHTML, like Gecko) Chrome/120.0.0.0 Safari/537.36 Edg/120.0.0.0" etag="qEgjxqxFaGgapYanio7p" version="22.1.18" type="github">
  <diagram name="Page-1" id="0R7iFiymNNS3z-CdKc-B">
    <mxGraphModel dx="1533" dy="953" grid="1" gridSize="10" guides="1" tooltips="1" connect="1" arrows="1" fold="1" page="1" pageScale="1" pageWidth="827" pageHeight="1169" math="0" shadow="0">
      <root>
        <mxCell id="0" />
        <mxCell id="1" parent="0" />
        <mxCell id="RxmJ1Wp33Ps3ps2207tU-1" value="电化学模型概述" style="rounded=0;whiteSpace=wrap;html=1;rotation=0;" vertex="1" parent="1">
          <mxGeometry x="112" y="490" width="112.5" height="30" as="geometry" />
        </mxCell>
        <mxCell id="RxmJ1Wp33Ps3ps2207tU-2" value="神经网络模型概述" style="rounded=0;whiteSpace=wrap;html=1;rotation=0;" vertex="1" parent="1">
          <mxGeometry x="112" y="530" width="112.5" height="30" as="geometry" />
        </mxCell>
        <mxCell id="RxmJ1Wp33Ps3ps2207tU-3" value="等效电路模型概述" style="rounded=0;whiteSpace=wrap;html=1;rotation=0;" vertex="1" parent="1">
          <mxGeometry x="112" y="570" width="112.5" height="30" as="geometry" />
        </mxCell>
        <mxCell id="RxmJ1Wp33Ps3ps2207tU-4" value="" style="edgeStyle=orthogonalEdgeStyle;rounded=0;orthogonalLoop=1;jettySize=auto;html=1;" edge="1" parent="1" source="RxmJ1Wp33Ps3ps2207tU-5" target="RxmJ1Wp33Ps3ps2207tU-10">
          <mxGeometry relative="1" as="geometry" />
        </mxCell>
        <mxCell id="RxmJ1Wp33Ps3ps2207tU-5" value="一阶RC等效电路模型" style="rounded=0;whiteSpace=wrap;html=1;rotation=0;" vertex="1" parent="1">
          <mxGeometry x="274.5" y="530" width="127" height="30" as="geometry" />
        </mxCell>
        <mxCell id="RxmJ1Wp33Ps3ps2207tU-6" value="" style="endArrow=classic;html=1;rounded=0;entryX=0;entryY=0.25;entryDx=0;entryDy=0;exitX=1;exitY=0.5;exitDx=0;exitDy=0;" edge="1" parent="1" source="RxmJ1Wp33Ps3ps2207tU-1" target="RxmJ1Wp33Ps3ps2207tU-5">
          <mxGeometry width="50" height="50" relative="1" as="geometry">
            <mxPoint x="241.5" y="510" as="sourcePoint" />
            <mxPoint x="291.5" y="460" as="targetPoint" />
          </mxGeometry>
        </mxCell>
        <mxCell id="RxmJ1Wp33Ps3ps2207tU-7" value="" style="endArrow=classic;html=1;rounded=0;exitX=1;exitY=0.5;exitDx=0;exitDy=0;" edge="1" parent="1" source="RxmJ1Wp33Ps3ps2207tU-2">
          <mxGeometry width="50" height="50" relative="1" as="geometry">
            <mxPoint x="234.5" y="515" as="sourcePoint" />
            <mxPoint x="271.5" y="545" as="targetPoint" />
          </mxGeometry>
        </mxCell>
        <mxCell id="RxmJ1Wp33Ps3ps2207tU-8" value="" style="endArrow=classic;html=1;rounded=0;exitX=1;exitY=0.5;exitDx=0;exitDy=0;entryX=0;entryY=0.75;entryDx=0;entryDy=0;" edge="1" parent="1" source="RxmJ1Wp33Ps3ps2207tU-3" target="RxmJ1Wp33Ps3ps2207tU-5">
          <mxGeometry width="50" height="50" relative="1" as="geometry">
            <mxPoint x="244.5" y="525" as="sourcePoint" />
            <mxPoint x="271.5" y="550" as="targetPoint" />
          </mxGeometry>
        </mxCell>
        <mxCell id="RxmJ1Wp33Ps3ps2207tU-9" value="" style="edgeStyle=orthogonalEdgeStyle;rounded=0;orthogonalLoop=1;jettySize=auto;html=1;" edge="1" parent="1" source="RxmJ1Wp33Ps3ps2207tU-10" target="RxmJ1Wp33Ps3ps2207tU-11">
          <mxGeometry relative="1" as="geometry" />
        </mxCell>
        <mxCell id="RxmJ1Wp33Ps3ps2207tU-10" value="在线参数辨识" style="rounded=0;whiteSpace=wrap;html=1;rotation=0;" vertex="1" parent="1">
          <mxGeometry x="426" y="530" width="127" height="30" as="geometry" />
        </mxCell>
        <mxCell id="RxmJ1Wp33Ps3ps2207tU-11" value="模型精度验证" style="rounded=0;whiteSpace=wrap;html=1;rotation=0;" vertex="1" parent="1">
          <mxGeometry x="587.25" y="530" width="127" height="30" as="geometry" />
        </mxCell>
        <mxCell id="RxmJ1Wp33Ps3ps2207tU-12" value="" style="endArrow=none;dashed=1;html=1;dashPattern=1 3;strokeWidth=2;rounded=0;" edge="1" parent="1">
          <mxGeometry width="50" height="50" relative="1" as="geometry">
            <mxPoint x="98" y="460" as="sourcePoint" />
            <mxPoint x="738" y="460" as="targetPoint" />
          </mxGeometry>
        </mxCell>
        <mxCell id="RxmJ1Wp33Ps3ps2207tU-13" value="" style="endArrow=none;dashed=1;html=1;dashPattern=1 3;strokeWidth=2;rounded=0;" edge="1" parent="1">
          <mxGeometry width="50" height="50" relative="1" as="geometry">
            <mxPoint x="100" y="460" as="sourcePoint" />
            <mxPoint x="100" y="610" as="targetPoint" />
          </mxGeometry>
        </mxCell>
        <mxCell id="RxmJ1Wp33Ps3ps2207tU-14" value="" style="endArrow=none;dashed=1;html=1;dashPattern=1 3;strokeWidth=2;rounded=0;" edge="1" parent="1">
          <mxGeometry width="50" height="50" relative="1" as="geometry">
            <mxPoint x="98" y="610" as="sourcePoint" />
            <mxPoint x="738" y="610" as="targetPoint" />
          </mxGeometry>
        </mxCell>
        <mxCell id="RxmJ1Wp33Ps3ps2207tU-15" value="" style="endArrow=none;dashed=1;html=1;dashPattern=1 3;strokeWidth=2;rounded=0;" edge="1" parent="1">
          <mxGeometry width="50" height="50" relative="1" as="geometry">
            <mxPoint x="730" y="460" as="sourcePoint" />
            <mxPoint x="730" y="610" as="targetPoint" />
          </mxGeometry>
        </mxCell>
      </root>
    </mxGraphModel>
  </diagram>
</mxfile>
